<svg xmlns="http://www.w3.org/2000/svg" viewBox="0 0 880 240" role="img" aria-label="صَوْغ | SOGH — القفل الأفقي المعكوس">
  <title>صَوْغ | SOGH — القفل الأفقي المعكوس</title>
  <g transform="translate(460 0)">
  <path d="M 386 126 C 372 106 336 100 318 112 C 306 120 306 136 318 143 C 336 153 372 147 386 126 Z" fill="none" stroke="#F4F0E8" stroke-width="14" stroke-linecap="butt" stroke-linejoin="round"/>
  <path d="M 320 143 C 312 150 306 150 300 150 L 296 150 C 292 150 291 139 287 139 C 283 139 282 150 278 150 L 250 150" fill="none" stroke="#F4F0E8" stroke-width="14" stroke-linecap="butt" stroke-linejoin="round"/>
  <circle cx="236" cy="133" r="17" fill="none" stroke="#F4F0E8" stroke-width="14"/>
  <path d="M 245 144 C 254 170 236 194 204 192" fill="none" stroke="#F4F0E8" stroke-width="14" stroke-linecap="butt" stroke-linejoin="round"/>
  <path d="M 178 96 C 156 88 138 96 140 110 C 141 122 158 126 172 120" fill="none" stroke="#F4F0E8" stroke-width="14" stroke-linecap="butt" stroke-linejoin="round"/>
  <path d="M 172 120 C 138 128 116 150 124 178 C 130 198 164 204 182 184" fill="none" stroke="#F4F0E8" stroke-width="14" stroke-linecap="butt" stroke-linejoin="round"/>
  <circle cx="152" cy="64" r="7" fill="#315CFF"/>
  <path d="M 332 78 L 366 66" fill="none" stroke="#315CFF" stroke-width="11" stroke-linecap="butt"/>
  <circle cx="236" cy="92" r="8" fill="none" stroke="#315CFF" stroke-width="7"/></g>
  <line x1="430" y1="64" x2="430" y2="186" stroke="#F4F0E8" stroke-width="2" opacity="0.4"/>
  <g transform="translate(24 62) scale(1.3)">
  <path d="M 62 24 C 56 13 22 12 20 26 C 18 40 58 38 56 53 C 54 68 18 68 13 55" fill="none" stroke="#F4F0E8" stroke-width="9" stroke-linecap="butt" stroke-linejoin="round"/>
  <circle cx="112" cy="42" r="26" fill="none" stroke="#F4F0E8" stroke-width="9"/>
  <path d="M 206 24 A 26 26 0 1 0 212 46 L 186 46" fill="none" stroke="#F4F0E8" stroke-width="9" stroke-linecap="butt" stroke-linejoin="round"/>
  <path d="M 238 16 L 238 68 M 274 16 L 274 68 M 238 42 L 274 42" fill="none" stroke="#F4F0E8" stroke-width="9" stroke-linecap="butt" stroke-linejoin="round"/>
  <circle cx="186" cy="78" r="5" fill="#315CFF"/></g>
</svg>
